Coordinates
version=1
nRows=35
nColumns=19
inDegrees=yes

Units are S.I. units (second, meters, Newtons, ...)
Angles are in degrees.

endheader
time	ground_force_vx	ground_force_vy	ground_force_vz	ground_force_px	ground_force_py	ground_force_pz	1_ground_force_vx	1_ground_force_vy	1_ground_force_vz	1_ground_force_px	1_ground_force_py	1_ground_force_pz	ground_torque_x	ground_torque_y	ground_torque_z	1_ground_torque_x	1_ground_torque_y	1_ground_torque_z
1.3600	21.330	879.699	96.606	-0.286	0.000	0.399	64.326	822.778	-77.612	-0.341	0.000	0.020	0.00000	16.99419	0.00000	0.00000	-6.28441	0.00000
1.3625	21.422	875.859	95.767	-0.286	0.000	0.399	64.561	818.310	-79.767	-0.341	0.000	0.019	0.00000	16.71557	0.00000	0.00000	-5.84882	0.00000
1.3650	21.076	871.857	95.286	-0.286	0.000	0.399	64.268	815.386	-81.567	-0.341	0.000	0.019	0.00000	16.47821	0.00000	0.00000	-5.67345	0.00000
1.3675	21.299	867.148	93.830	-0.286	0.000	0.398	64.189	810.747	-82.940	-0.341	0.000	0.017	0.00000	16.19813	0.00000	0.00000	-5.38944	0.00000
1.3700	21.434	863.139	93.126	-0.286	0.000	0.398	64.420	809.197	-84.517	-0.341	0.000	0.017	0.00000	16.00497	0.00000	0.00000	-5.14824	0.00000
1.3725	21.696	857.735	91.274	-0.286	0.000	0.397	63.784	806.099	-87.159	-0.340	0.000	0.016	0.00000	15.78828	0.00000	0.00000	-4.90540	0.00000
1.3750	21.531	851.636	90.703	-0.286	0.000	0.397	63.712	803.349	-89.009	-0.340	0.000	0.015	0.00000	15.36993	0.00000	0.00000	-4.54768	0.00000
1.3775	21.316	845.717	89.871	-0.286	0.000	0.396	63.341	801.113	-91.600	-0.340	0.000	0.014	0.00000	15.08176	0.00000	0.00000	-4.14115	0.00000
1.3800	21.981	841.515	88.849	-0.286	0.000	0.396	60.990	799.213	-93.023	-0.340	0.000	0.014	0.00000	14.75987	0.00000	0.00000	-4.50644	0.00000
1.3825	22.515	835.232	87.876	-0.285	0.000	0.395	59.210	797.500	-94.001	-0.340	0.000	0.013	0.00000	14.45876	0.00000	0.00000	-4.39880	0.00000
1.3850	23.225	828.089	86.776	-0.285	0.000	0.395	57.531	795.602	-97.078	-0.340	0.000	0.013	0.00000	14.31861	0.00000	0.00000	-4.29019	0.00000
1.3875	23.277	822.847	85.314	-0.285	0.000	0.394	57.067	793.365	-99.184	-0.340	0.000	0.012	0.00000	13.84418	0.00000	0.00000	-4.08358	0.00000
1.3900	24.206	814.476	84.212	-0.285	0.000	0.394	56.325	788.050	-99.068	-0.340	0.000	0.012	0.00000	13.60444	0.00000	0.00000	-3.80722	0.00000
1.3925	24.879	806.459	84.124	-0.285	0.000	0.393	55.059	781.866	-99.393	-0.340	0.000	0.011	0.00000	13.43320	0.00000	0.00000	-3.78279	0.00000
1.3950	25.103	797.217	82.934	-0.285	0.000	0.393	54.758	773.805	-99.671	-0.340	0.000	0.010	0.00000	13.05542	0.00000	0.00000	-3.21226	0.00000
1.3975	25.721	786.579	80.905	-0.285	0.000	0.392	54.323	763.851	-99.778	-0.340	0.000	0.010	0.00000	12.68785	0.00000	0.00000	-2.75798	0.00000
1.4000	26.036	777.164	80.730	-0.285	0.000	0.392	53.934	753.038	-100.232	-0.339	0.000	0.009	0.00000	12.40656	0.00000	0.00000	-2.18662	0.00000
1.4025	25.863	764.279	79.637	-0.285	0.000	0.391	52.978	739.993	-100.648	-0.339	0.000	0.008	0.00000	12.11693	0.00000	0.00000	-1.62637	0.00000
1.4050	25.639	750.159	77.479	-0.285	0.000	0.391	52.449	724.548	-100.149	-0.339	0.000	0.008	0.00000	11.60990	0.00000	0.00000	-1.01712	0.00000
1.4075	25.781	734.997	76.955	-0.285	0.000	0.390	51.442	707.730	-99.738	-0.339	0.000	0.007	0.00000	11.14097	0.00000	0.00000	-0.37238	0.00000
1.4100	25.956	717.915	75.328	-0.286	0.000	0.390	49.330	689.714	-97.756	-0.338	0.000	0.007	0.00000	10.69412	0.00000	0.00000	-0.00851	0.00000
1.4125	25.105	698.398	72.163	-0.286	0.000	0.390	46.822	669.135	-94.815	-0.338	0.000	0.007	0.00000	10.09699	0.00000	0.00000	0.61071	0.00000
1.4150	24.827	676.268	68.778	-0.286	0.000	0.389	43.432	644.774	-91.227	-0.337	0.000	0.006	0.00000	9.53353	0.00000	0.00000	1.00793	0.00000
1.4175	24.016	651.357	65.267	-0.287	0.000	0.388	40.596	618.698	-85.886	-0.337	0.000	0.007	0.00000	8.91469	0.00000	0.00000	1.36975	0.00000
1.4200	24.168	623.467	60.601	-0.288	0.000	0.387	36.583	587.295	-81.169	-0.337	0.000	0.007	0.00000	8.29985	0.00000	0.00000	1.66616	0.00000
1.4225	23.749	590.531	55.458	-0.289	0.000	0.386	33.952	552.636	-74.527	-0.336	0.000	0.007	0.00000	7.46986	0.00000	0.00000	2.17043	0.00000
1.4250	23.498	555.862	50.582	-0.290	0.000	0.385	29.669	515.561	-69.203	-0.335	0.000	0.007	0.00000	6.98601	0.00000	0.00000	2.35014	0.00000
1.4275	23.732	517.178	44.116	-0.291	0.000	0.383	24.635	475.226	-62.928	-0.334	0.000	0.008	0.00000	6.31614	0.00000	0.00000	2.45743	0.00000
1.4300	24.171	477.968	36.899	-0.292	0.000	0.382	19.600	434.536	-57.215	-0.332	0.000	0.009	0.00000	5.90134	0.00000	0.00000	2.24577	0.00000
1.4325	23.373	436.685	28.897	-0.294	0.000	0.380	14.905	388.705	-50.065	-0.330	0.000	0.010	0.00000	5.36872	0.00000	0.00000	2.38418	0.00000
1.4350	24.482	394.325	21.763	-0.296	0.000	0.379	6.696	340.850	-39.043	-0.328	0.000	0.012	0.00000	4.81199	0.00000	0.00000	2.52178	0.00000
1.4375	26.448	349.698	11.493	-0.297	0.000	0.376	-0.511	296.369	-34.867	-0.324	0.000	0.017	0.00000	4.65613	0.00000	0.00000	2.09770	0.00000
1.4400	29.694	301.554	0.152	-0.300	0.000	0.373	-5.792	248.286	-30.945	-0.321	0.000	0.023	0.00000	4.35882	0.00000	0.00000	2.32374	0.00000
1.4425	34.159	251.675	-8.591	-0.301	0.000	0.369	-7.904	196.287	-19.420	-0.314	0.000	0.026	0.00000	4.31442	0.00000	0.00000	2.78937	0.00000
1.4450	37.078	210.700	-15.784	-0.303	0.000	0.366	-11.231	154.084	-12.683	-0.305	0.000	0.036	0.00000	4.44786	0.00000	0.00000	3.92774	0.00000
